<svg width="50" height="50" viewBox="0 0 50 50" fill="none" xmlns="http://www.w3.org/2000/svg">
<rect width="50" height="50" rx="25" fill="#8D714C"/>
<g clip-path="url(#clip0_46_2506)">
<path d="M16 31.5001V18.5001C16 18.1334 16.15 17.8541 16.45 17.6621C16.75 17.4707 17.0667 17.4417 17.4 17.5751L32.8 24.0751C33.2167 24.2584 33.425 24.5667 33.425 25.0001C33.425 25.4334 33.2167 25.7417 32.8 25.9251L17.4 32.4251C17.0667 32.5584 16.75 32.5291 16.45 32.3371C16.15 32.1457 16 31.8667 16 31.5001ZM18 30.0001L29.85 25.0001L18 20.0001V23.5001L24 25.0001L18 26.5001V30.0001ZM18 25.0001V20.0001V30.0001V25.0001Z" fill="white"/>
</g>
<defs>
<clipPath id="clip0_46_2506">
<rect width="18" height="16" fill="white" transform="translate(16 17)"/>
</clipPath>
</defs>
</svg>
