<svg width="28" height="28" viewBox="0 0 28 28" fill="none" xmlns="http://www.w3.org/2000/svg">
<g clip-path="url(#clip0_46_2515)">
<rect width="28" height="28" rx="14" fill="#CACACA"/>
<g clip-path="url(#clip1_46_2515)">
<g clip-path="url(#clip2_46_2515)">
<path d="M20.4893 15.1296C20.4839 15.0116 20.3874 14.9205 20.2662 14.9254C20.1482 14.9307 20.0566 15.0304 20.0619 15.1485C20.077 15.4842 20.0646 15.8242 20.0258 16.1578C20.0124 16.2753 20.0959 16.3815 20.2134 16.3949C20.222 16.396 20.2301 16.3966 20.2387 16.3966C20.3459 16.3966 20.4381 16.3163 20.451 16.2074C20.4925 15.8512 20.506 15.4885 20.4898 15.1296H20.4893Z" fill="white"/>
<path d="M20.0563 17.1364C19.9437 17.1019 19.8235 17.165 19.789 17.2776C19.643 17.7507 19.4419 18.1991 19.1957 18.6162C19.2296 18.558 19.263 18.4998 19.2959 18.4405V16.3124C19.2959 15.8446 18.9149 15.4636 18.4471 15.4636H15.1167V14.4516H17.2163C17.9664 14.4516 18.5765 13.8416 18.5765 13.0919V12.7573H19.2706C19.339 12.7573 19.4048 12.7476 19.4678 12.7303C19.651 13.121 19.7949 13.5306 19.8952 13.952C19.9183 14.0506 20.0062 14.1164 20.1032 14.1164C20.1193 14.1164 20.136 14.1148 20.1528 14.1105C20.2675 14.083 20.3387 13.9677 20.3117 13.8529C20.2013 13.3867 20.0412 12.934 19.8353 12.5035C19.9561 12.3687 20.0304 12.192 20.0304 11.9969V10.0531C20.0304 9.63435 19.6898 9.29322 19.2717 9.29322H19.1763V7.46473C19.4818 7.37043 19.7049 7.08535 19.7049 6.74907C19.7049 6.33627 19.3692 6 18.9564 6C18.5436 6 18.2073 6.33627 18.2073 6.74907C18.2073 7.08535 18.4304 7.37043 18.736 7.46473V9.29484H18.577V8.96072C18.577 8.21057 17.967 7.60054 17.2168 7.60054H13.7603C13.6423 7.60054 13.5464 7.69646 13.5464 7.81448C13.5464 7.9325 13.6423 8.02842 13.7603 8.02842H17.2168C17.7309 8.02842 18.1486 8.44661 18.1486 8.96072V13.0919C18.1486 13.6055 17.7304 14.0237 17.2168 14.0237H10.2801C9.76651 14.0237 9.34833 13.6055 9.34833 13.0919V8.96126C9.34833 8.44715 9.76651 8.02896 10.2801 8.02896H10.6746C10.7926 8.02896 10.8885 7.93304 10.8885 7.81502C10.8885 7.697 10.7926 7.60108 10.6746 7.60108H10.2801C9.53048 7.60108 8.92044 8.21111 8.92044 8.96126V9.29538H8.76146V7.46473C9.06756 7.37043 9.29013 7.08535 9.29013 6.74907C9.29013 6.33627 8.95439 6 8.54105 6C8.12772 6 7.79198 6.33574 7.79198 6.74907C7.79198 7.08535 8.01509 7.37043 8.32064 7.46473V9.29538H8.2258C7.80707 9.29538 7.46648 9.63597 7.46648 10.0552V11.999C7.46648 12.1931 7.54031 12.3703 7.66103 12.5045C7.66103 12.5051 7.65995 12.5062 7.65995 12.5067C7.46595 12.9416 7.32906 13.3404 7.32368 13.3571C7.31775 13.3749 7.31505 13.3926 7.31344 13.4099C7.30481 13.4244 7.29673 13.4401 7.29188 13.4573C6.9998 14.4144 6.92651 15.4054 7.07309 16.4029C7.56618 19.7517 10.4542 22.1676 13.7431 22.167C14.0686 22.167 14.3989 22.1433 14.7303 22.0943C17.2885 21.7176 19.4344 19.8762 20.1969 17.4037C20.232 17.2905 20.1684 17.1709 20.0558 17.1364H20.0563ZM18.6341 6.74907C18.6341 6.57231 18.778 6.42789 18.9553 6.42789C19.1326 6.42789 19.276 6.57177 19.276 6.74907C19.276 6.92637 19.1321 7.06972 18.9553 7.06972C18.7786 7.06972 18.6341 6.92583 18.6341 6.74907ZM19.27 9.73566C19.4457 9.73566 19.5885 9.87847 19.5885 10.0547V11.9985C19.5885 12.1747 19.4457 12.3175 19.27 12.3175H18.5759V9.73566H19.27ZM8.22041 6.74907C8.22041 6.57231 8.36429 6.42789 8.54159 6.42789C8.71889 6.42789 8.86278 6.57177 8.86278 6.74907C8.86278 6.92637 8.71889 7.06972 8.54159 7.06972C8.36429 7.06972 8.22041 6.92583 8.22041 6.74907ZM19.0825 18.8005C19.0475 18.8555 19.0119 18.9099 18.9753 18.9633C19.0119 18.9094 19.0475 18.8555 19.0825 18.8005ZM14.6759 15.4642H12.8194V14.4521H14.6759V15.4642ZM7.90677 10.0547C7.90677 9.87847 8.05011 9.73566 8.2258 9.73566H8.9199V12.3175H8.2258C8.04958 12.3175 7.90677 12.1747 7.90677 11.9985V10.0547ZM7.70091 13.5818C7.70576 13.5662 7.70791 13.5505 7.70953 13.5349C7.71707 13.5225 7.72354 13.509 7.72839 13.495C7.72947 13.4913 7.85395 13.1291 8.02856 12.7314C8.09161 12.7487 8.15789 12.7584 8.22633 12.7584H8.92044V13.093C8.92044 13.8426 9.53048 14.4527 10.2801 14.4527H12.3796V15.4647H9.04924C8.58093 15.4647 8.20101 15.8457 8.20101 16.3135V18.4459C8.23172 18.5025 8.26352 18.558 8.29639 18.6135C7.89707 17.9334 7.61899 17.1682 7.4972 16.341C7.35978 15.4065 7.42822 14.4785 7.70145 13.5823L7.70091 13.5818ZM8.40956 18.7989C8.37615 18.7461 8.34328 18.6922 8.31094 18.6383C8.34328 18.6922 8.37561 18.7461 8.40956 18.7989ZM13.5749 21.7365C13.6288 21.7381 13.6822 21.7386 13.7361 21.7386C13.6822 21.7386 13.6283 21.7381 13.5749 21.7365ZM13.389 21.7289C13.4461 21.7321 13.5038 21.7343 13.5609 21.7359C13.5033 21.7343 13.4461 21.7321 13.389 21.7289ZM14.6684 21.6712C14.4749 21.6998 14.2825 21.7187 14.0907 21.7289H13.3885C11.4759 21.6206 9.73957 20.6425 8.64021 19.1384V16.313C8.64021 16.0877 8.82344 15.9045 9.0487 15.9045H18.4466C18.6713 15.9045 18.8545 16.0877 18.8545 16.313V19.1336C18.8939 19.0802 18.9316 19.0258 18.9693 18.9713C17.9869 20.407 16.4327 21.411 14.6684 21.6707V21.6712Z" fill="white"/>
<path d="M11.6734 8.02896H12.7609C12.8789 8.02896 12.9749 7.93304 12.9749 7.81502C12.9749 7.697 12.8789 7.60107 12.7609 7.60107H11.6734C11.5554 7.60107 11.4595 7.697 11.4595 7.81502C11.4595 7.93304 11.5554 8.02896 11.6734 8.02896Z" fill="white"/>
<path d="M11.5671 11.2817C11.9513 11.2817 12.2639 10.9692 12.2639 10.5849C12.2639 10.2007 11.9513 9.88867 11.5671 9.88867C11.1829 9.88867 10.8708 10.2012 10.8708 10.5849C10.8708 10.9686 11.1834 11.2817 11.5671 11.2817ZM11.5671 10.3166C11.7153 10.3166 11.836 10.4367 11.836 10.5849C11.836 10.7331 11.7153 10.8533 11.5671 10.8533C11.4189 10.8533 11.2987 10.7326 11.2987 10.5849C11.2987 10.4373 11.4189 10.3166 11.5671 10.3166Z" fill="white"/>
<path d="M16.6259 10.5849C16.6259 10.2012 16.3134 9.88867 15.9297 9.88867C15.546 9.88867 15.2334 10.2012 15.2334 10.5849C15.2334 10.9686 15.546 11.2817 15.9297 11.2817C16.3134 11.2817 16.6259 10.9692 16.6259 10.5849ZM15.6613 10.5849C15.6613 10.4367 15.7815 10.3166 15.9297 10.3166C16.0779 10.3166 16.198 10.4367 16.198 10.5849C16.198 10.7331 16.0773 10.8533 15.9297 10.8533C15.782 10.8533 15.6613 10.7326 15.6613 10.5849Z" fill="white"/>
<path d="M12.4025 12.0642C12.319 12.1478 12.319 12.283 12.4025 12.3666C12.7733 12.7379 13.261 12.9232 13.7481 12.9232C14.2353 12.9232 14.723 12.7379 15.0938 12.3666C15.1773 12.283 15.1773 12.1478 15.0938 12.0642C15.0102 11.9807 14.875 11.9807 14.7914 12.0642C14.2164 12.6392 13.2804 12.6392 12.7054 12.0642C12.6218 11.9807 12.4866 11.9807 12.403 12.0642H12.4025Z" fill="white"/>
</g>
</g>
</g>
<rect x="0.5" y="0.5" width="27" height="27" rx="13.5" stroke="#CACACA"/>
<defs>
<clipPath id="clip0_46_2515">
<rect width="28" height="28" rx="14" fill="white"/>
</clipPath>
<clipPath id="clip1_46_2515">
<rect width="33.8333" height="33.8333" fill="white" transform="translate(-2.91675)"/>
</clipPath>
<clipPath id="clip2_46_2515">
<rect width="13.4957" height="16.167" fill="white" transform="translate(7 6)"/>
</clipPath>
</defs>
</svg>
