<svg width="69" height="82" viewBox="0 0 69 82" fill="none" xmlns="http://www.w3.org/2000/svg">
<g clip-path="url(#clip0_46_2437)">
<path d="M68.8496 45.9607C68.8225 45.3666 68.3369 44.9081 67.7264 44.9325C67.1323 44.9596 66.6711 45.4615 66.6982 46.0557C66.7742 47.7458 66.7118 49.4577 66.5165 51.1371C66.4486 51.7285 66.8691 52.263 67.4606 52.3308C67.504 52.3362 67.5447 52.3389 67.5881 52.3389C68.128 52.3389 68.5919 51.9347 68.657 51.3867C68.8659 49.5934 68.9337 47.7675 68.8523 45.9607H68.8496Z" fill="#8D714C"/>
<path d="M66.6715 56.0637C66.1044 55.8901 65.4995 56.2075 65.3258 56.7746C64.5906 59.1565 63.5787 61.4137 62.3388 63.5136C62.5097 63.2206 62.6779 62.9276 62.8434 62.6292V51.9156C62.8434 49.5607 60.9254 47.6427 58.5705 47.6427H41.8043V42.5477H52.3741C56.1505 42.5477 59.2216 39.4766 59.2216 35.7028V34.0181H62.7159C63.0605 34.0181 63.3915 33.9692 63.7089 33.8824C64.6313 35.8493 65.3557 37.9112 65.8603 40.0327C65.9769 40.5292 66.4192 40.8602 66.9075 40.8602C66.9889 40.8602 67.073 40.8521 67.1571 40.8304C67.7349 40.692 68.0931 40.1114 67.9574 39.5336C67.4013 37.1868 66.5955 34.9079 65.5591 32.7403C66.1668 32.062 66.5412 31.1721 66.5412 30.1901V20.4043C66.5412 18.2963 64.8266 16.579 62.7214 16.579H62.2412V7.37388C63.7794 6.89911 64.9026 5.46394 64.9026 3.77104C64.9026 1.6929 63.2124 0 61.1343 0C59.0561 0 57.3632 1.6929 57.3632 3.77104C57.3632 5.46394 58.4864 6.89911 60.0247 7.37388V16.5872H59.2243V14.9051C59.2243 11.1286 56.1532 8.05755 52.3768 8.05755H34.9757C34.3816 8.05755 33.8987 8.54046 33.8987 9.13461C33.8987 9.72875 34.3816 10.2117 34.9757 10.2117H52.3768C54.9649 10.2117 57.0675 12.3169 57.0675 14.9051V35.7028C57.0675 38.2883 54.9622 40.3936 52.3768 40.3936H17.4553C14.8698 40.3936 12.7645 38.2883 12.7645 35.7028V14.9078C12.7645 12.3196 14.8698 10.2144 17.4553 10.2144H19.4412C20.0353 10.2144 20.5182 9.73146 20.5182 9.13732C20.5182 8.54318 20.0353 8.06027 19.4412 8.06027H17.4553C13.6815 8.06027 10.6104 11.1314 10.6104 14.9078V16.5899H9.8101V7.37388C11.3511 6.89911 12.4715 5.46394 12.4715 3.77104C12.4715 1.6929 10.7813 0 8.70049 0C6.61963 0 4.92944 1.69019 4.92944 3.77104C4.92944 5.46394 6.05262 6.89911 7.59088 7.37388V16.5899H7.11339C5.00541 16.5899 3.2908 18.3045 3.2908 20.4152V30.2009C3.2908 31.1776 3.66248 32.0701 4.27019 32.7457C4.27019 32.7484 4.26476 32.7538 4.26476 32.7565C3.28809 34.9459 2.59899 36.9535 2.57186 37.0376C2.54202 37.1271 2.52846 37.2167 2.52032 37.3035C2.47691 37.3767 2.43622 37.4554 2.4118 37.5422C0.941363 42.3605 0.572398 47.3497 1.31033 52.3714C3.79271 69.2298 18.3316 81.3921 34.8889 81.3894C36.5275 81.3894 38.1906 81.2701 39.8591 81.0232C52.7376 79.1268 63.5407 69.8565 67.3795 57.4094C67.5559 56.8397 67.2358 56.2374 66.6687 56.0637H66.6715ZM59.5119 3.77104C59.5119 2.88119 60.2363 2.15411 61.1288 2.15411C62.0214 2.15411 62.7431 2.87847 62.7431 3.77104C62.7431 4.66361 62.0187 5.38527 61.1288 5.38527C60.239 5.38527 59.5119 4.6609 59.5119 3.77104ZM62.7132 18.8064C63.5976 18.8064 64.3166 19.5253 64.3166 20.4125V30.1982C64.3166 31.0853 63.5976 31.8043 62.7132 31.8043H59.2189V18.8064H62.7132ZM7.08626 3.77104C7.08626 2.88119 7.81063 2.15411 8.7032 2.15411C9.59577 2.15411 10.3201 2.87847 10.3201 3.77104C10.3201 4.66361 9.59577 5.38527 8.7032 5.38527C7.81063 5.38527 7.08626 4.6609 7.08626 3.77104ZM61.7691 64.4414C61.5928 64.7182 61.4137 64.9922 61.2292 65.2608C61.4137 64.9895 61.5928 64.7182 61.7691 64.4414ZM39.5851 47.6454H30.2388V42.5504H39.5851V47.6454ZM5.50731 20.4125C5.50731 19.5253 6.22896 18.8064 7.11339 18.8064H10.6077V31.8043H7.11339C6.22625 31.8043 5.50731 31.0853 5.50731 30.1982V20.4125ZM4.47095 38.1689C4.49537 38.0903 4.50622 38.0116 4.51436 37.9329C4.55234 37.8705 4.5849 37.8027 4.60931 37.7321C4.61474 37.7131 5.24144 35.89 6.12044 33.8878C6.43786 33.9747 6.77156 34.0235 7.11611 34.0235H10.6104V35.7083C10.6104 39.482 13.6815 42.5531 17.4553 42.5531H28.025V47.6481H11.2588C8.90125 47.6481 6.9886 49.5662 6.9886 51.921V62.6563C7.14324 62.9412 7.3033 63.2206 7.46879 63.5C5.45848 60.0762 4.05858 56.2238 3.44544 52.0594C2.75363 47.3551 3.09818 42.6833 4.47366 38.1716L4.47095 38.1689ZM8.03852 64.4333C7.87032 64.1674 7.70482 63.8961 7.54205 63.6248C7.70482 63.8961 7.8676 64.1674 8.03852 64.4333ZM34.0424 79.2218C34.3137 79.2299 34.5823 79.2326 34.8536 79.2326C34.5823 79.2326 34.311 79.2299 34.0424 79.2218ZM33.1065 79.1838C33.394 79.2001 33.6843 79.2109 33.9719 79.219C33.6816 79.2109 33.394 79.2001 33.1065 79.1838ZM39.5471 78.8935C38.5731 79.0373 37.6046 79.1322 36.6388 79.1838H33.1037C23.4754 78.6385 14.7342 73.7144 9.19968 66.1425V51.9183C9.19968 50.7843 10.1221 49.8619 11.2561 49.8619H58.5678C59.6991 49.8619 60.6215 50.7843 60.6215 51.9183V66.1181C60.8196 65.8495 61.0095 65.5755 61.1994 65.3014C56.2536 72.5288 48.4294 77.5831 39.5471 78.8908V78.8935Z" fill="#8D714C"/>
<path d="M24.4682 10.2145H29.943C30.5371 10.2145 31.02 9.73155 31.02 9.1374C31.02 8.54326 30.5371 8.06035 29.943 8.06035H24.4682C23.874 8.06035 23.3911 8.54326 23.3911 9.1374C23.3911 9.73155 23.874 10.2145 24.4682 10.2145Z" fill="#8D714C"/>
<path d="M23.9334 26.5899C25.8677 26.5899 27.4413 25.0164 27.4413 23.082C27.4413 21.1476 25.8677 19.5768 23.9334 19.5768C21.999 19.5768 20.4282 21.1504 20.4282 23.082C20.4282 25.0136 22.0018 26.5899 23.9334 26.5899ZM23.9334 21.7309C24.6795 21.7309 25.2872 22.3359 25.2872 23.082C25.2872 23.8281 24.6795 24.4331 23.9334 24.4331C23.1873 24.4331 22.5823 23.8254 22.5823 23.082C22.5823 22.3386 23.1873 21.7309 23.9334 21.7309Z" fill="#8D714C"/>
<path d="M49.4005 23.082C49.4005 21.1504 47.8269 19.5768 45.8953 19.5768C43.9637 19.5768 42.3901 21.1504 42.3901 23.082C42.3901 25.0136 43.9637 26.5899 45.8953 26.5899C47.8269 26.5899 49.4005 25.0164 49.4005 23.082ZM44.5442 23.082C44.5442 22.3359 45.1492 21.7309 45.8953 21.7309C46.6414 21.7309 47.2464 22.3359 47.2464 23.082C47.2464 23.8281 46.6387 24.4331 45.8953 24.4331C45.152 24.4331 44.5442 23.8254 44.5442 23.082Z" fill="#8D714C"/>
<path d="M28.1386 30.5293C27.7181 30.9499 27.7181 31.6308 28.1386 32.0513C30.0052 33.9206 32.4604 34.8538 34.9129 34.8538C37.3655 34.8538 39.8207 33.9206 41.6873 32.0513C42.1078 31.6308 42.1078 30.9499 41.6873 30.5293C41.2667 30.1088 40.5858 30.1088 40.1653 30.5293C37.2705 33.4241 32.5581 33.4241 29.6633 30.5293C29.2428 30.1088 28.5619 30.1088 28.1413 30.5293H28.1386Z" fill="#8D714C"/>
</g>
<defs>
<clipPath id="clip0_46_2437">
<rect width="67.9412" height="81.3894" fill="white" transform="translate(0.941406)"/>
</clipPath>
</defs>
</svg>
